<svg width="55" height="54" viewBox="0 0 55 54" fill="none" xmlns="http://www.w3.org/2000/svg">
<g clip-path="url(#clip0_2645_478)">
<g clip-path="url(#clip1_2645_478)">
<g clip-path="url(#clip2_2645_478)">
<path d="M53.6004 2.35627e-08C53.6003 2.35627e-08 53.6001 2.35627e-08 53.6 2.35627e-08H1.4C0.903087 -0.000112476 0.500113 0.402637 0.5 0.89955C0.5 0.899662 0.5 0.899887 0.5 0.9V18.9H2.3V1.8H52.7V21.6H21.2V23.4H53.6C54.0969 23.4001 54.4999 22.9974 54.5 22.5004C54.5 22.5003 54.5 22.5001 54.5 22.5V0.9C54.5001 0.403087 54.0974 0.000112524 53.6004 2.35627e-08Z" fill="white"/>
</g>
</g>
<g clip-path="url(#clip3_2645_478)">
<g clip-path="url(#clip4_2645_478)">
<path d="M48.1992 4.5H30.1992V6.3H48.1992V4.5Z" fill="white"/>
</g>
</g>
<g clip-path="url(#clip5_2645_478)">
<g clip-path="url(#clip6_2645_478)">
<path d="M50.9004 9.8999H32.9004V11.6999H50.9004V9.8999Z" fill="white"/>
</g>
</g>
<g clip-path="url(#clip7_2645_478)">
<g clip-path="url(#clip8_2645_478)">
<path d="M47.3008 15.2998H29.3008V17.0998H47.3008V15.2998Z" fill="white"/>
</g>
</g>
<g clip-path="url(#clip9_2645_478)">
<g clip-path="url(#clip10_2645_478)">
<path d="M29.2282 7.75967C28.6121 6.27861 26.912 5.57751 25.431 6.19367C25.4057 6.20425 25.3805 6.21505 25.3555 6.2263L18.0579 10.0119C18.3457 9.41545 18.4967 8.76227 18.5 8.1001C18.5 5.61486 16.4852 3.6001 14 3.6001C11.5148 3.6001 9.5 5.61486 9.5 8.1001C9.50338 9.07693 9.82771 10.0256 10.4231 10.8001H10.3856C7.83095 10.8172 5.55046 12.4054 4.64855 14.7956L2.246 23.0767C1.67405 24.5623 2.41475 26.2305 3.90054 26.8024C4.57801 27.0632 5.32895 27.0588 6.00339 26.7901C6.77829 26.4779 7.38129 25.8474 7.65882 25.0595L8.6 22.0642V35.0897C7.82555 34.4945 6.87684 34.1702 5.9 34.1667C3.41848 34.163 1.40371 36.1717 1.4 38.6533C1.3982 39.8686 1.8887 41.0328 2.75979 41.8804C1.37739 42.5866 0.5054 44.0059 0.5 45.5582V53.1001C0.499888 53.597 0.902638 54 1.39955 54.0001C1.39966 54.0001 1.39989 54.0001 1.4 54.0001H10.4C10.8969 54.0002 11.2999 53.5975 11.3 53.1005C11.3 53.1004 11.3 53.1002 11.3 53.1001V45.5582C11.2956 44.2826 10.703 43.0804 9.69395 42.3001H16.5062C15.497 43.0804 14.9044 44.2826 14.9001 45.5582V53.1001C14.9 53.597 15.3027 54 15.7997 54.0001C15.7998 54.0001 15.8 54.0001 15.8001 54.0001H24.8001C25.297 54.0002 25.7 53.5975 25.7001 53.1005C25.7001 53.1004 25.7001 53.1002 25.7001 53.1001V45.5582C25.6947 44.0059 24.8227 42.5866 23.4403 41.8804C25.2173 40.1459 25.2518 37.2994 23.5174 35.5224C22.4493 34.4281 20.8983 33.9517 19.4001 34.2577V15.8467L27.6622 11.5568C29.1432 10.9407 29.8443 9.24062 29.2282 7.75967ZM14 5.4001C15.4912 5.4001 16.7 6.60891 16.7 8.1001C16.7 9.59128 15.4912 10.8001 14 10.8001C12.5095 10.7985 11.3016 9.59061 11.3 8.1001C11.3 6.60891 12.5088 5.4001 14 5.4001ZM5.9 35.9667C7.39119 35.9667 8.6 37.1755 8.6 38.6667C8.6 40.1579 7.39119 41.3667 5.9 41.3667C4.40881 41.3667 3.2 40.1579 3.2 38.6667C3.20158 37.1762 4.40949 35.9684 5.9 35.9667ZM9.5 52.2001H2.3V45.5582C2.3018 44.2565 3.35671 43.2017 4.65856 43.2001H7.14144C8.44318 43.2017 9.4982 44.2565 9.5 45.5582V52.2001ZM23.9 45.5582V52.2001H16.7V45.5582C16.7018 44.2565 17.7567 43.2017 19.0586 43.2001H21.5414C22.8433 43.2017 23.8982 44.2565 23.9 45.5582ZM20.3 35.9667C21.7905 35.9683 22.9984 37.1762 23 38.6667C23 40.1579 21.7912 41.3667 20.3 41.3667C18.8088 41.3667 17.6 40.1579 17.6 38.6667C17.6 37.1755 18.8088 35.9667 20.3 35.9667ZM27.5813 9.2611C27.4609 9.57025 27.2135 9.81291 26.902 9.92732L18.0857 14.5011C17.7873 14.6559 17.6 14.9641 17.6 15.3001V35.0897C15.9142 36.3362 15.3302 38.5922 16.1996 40.5001H14.9V25.2001H13.1V40.5001H10.0004C10.2564 39.9342 10.3913 39.3211 10.3966 38.7001H10.4V16.2001C10.3999 15.703 9.9968 15.3001 9.49978 15.3002C9.10681 15.3003 8.7593 15.5554 8.6414 15.9303L5.954 24.482C5.75038 25.0436 5.12994 25.3339 4.56834 25.1301C4.52896 25.1158 4.49038 25.0993 4.4528 25.0805C3.93361 24.8122 3.71323 24.1858 3.95015 23.6514L6.35259 15.3704C7.00047 13.7065 8.59989 12.6079 10.3855 12.6001H16.7581C16.9023 12.6003 17.0445 12.5656 17.1725 12.4991L26.1176 7.85586C26.6542 7.63199 27.2728 7.86103 27.534 8.38056C27.6725 8.65438 27.6897 8.97388 27.5813 9.2611Z" fill="white"/>
</g>
</g>
<g clip-path="url(#clip11_2645_478)">
<g clip-path="url(#clip12_2645_478)">
<path d="M37.841 41.8804C39.6211 40.1461 39.6582 37.297 37.9239 35.517C36.1896 33.7369 33.3405 33.6998 31.5605 35.434C29.7804 37.1683 29.7432 40.0174 31.4775 41.7975C31.5049 41.8255 31.5326 41.8532 31.5606 41.8804C30.1783 42.5867 29.3062 44.006 29.3008 45.5583V53.1001C29.3007 53.5971 29.7034 54 30.2003 54.0001C30.2004 54.0001 30.2007 54.0001 30.2008 54.0001H39.2008C39.6977 54.0003 40.1007 53.5975 40.1008 53.1006C40.1008 53.1005 40.1008 53.1003 40.1008 53.1001V45.5583C40.0954 44.006 39.2234 42.5867 37.841 41.8804ZM34.7008 35.9667C36.192 35.9667 37.4008 37.1756 37.4008 38.6667C37.4008 40.1579 36.192 41.3667 34.7008 41.3667C33.2096 41.3667 32.0008 40.1579 32.0008 38.6667C32.0024 37.1762 33.2103 35.9684 34.7008 35.9667ZM38.3008 52.2001H31.1008V45.5583C31.1026 44.2565 32.1575 43.2017 33.4593 43.2001H35.9422C37.244 43.2017 38.299 44.2565 38.3008 45.5583V52.2001Z" fill="white"/>
</g>
</g>
<g clip-path="url(#clip13_2645_478)">
<g clip-path="url(#clip14_2645_478)">
<path d="M52.2394 41.8804C54.0195 40.1461 54.0566 37.297 52.3223 35.517C50.588 33.7369 47.739 33.6998 45.9589 35.434C44.1788 37.1683 44.1417 40.0174 45.876 41.7975C45.9033 41.8255 45.931 41.8532 45.959 41.8804C44.5767 42.5867 43.7046 44.006 43.6992 45.5583V53.1001C43.6991 53.5971 44.1019 54 44.5988 54.0001C44.5989 54.0001 44.5991 54.0001 44.5992 54.0001H53.5992C54.0961 54.0003 54.4991 53.5975 54.4992 53.1006C54.4992 53.1005 54.4992 53.1003 54.4992 53.1001V45.5583C54.4938 44.006 53.6218 42.5867 52.2394 41.8804ZM49.0992 35.9667C50.5904 35.9667 51.7992 37.1756 51.7992 38.6667C51.7992 40.1579 50.5904 41.3667 49.0992 41.3667C47.608 41.3667 46.3992 40.1579 46.3992 38.6667C46.4008 37.1762 47.6087 35.9684 49.0992 35.9667ZM52.6992 52.2001H45.4992V45.5583C45.501 44.2565 46.5559 43.2017 47.8578 43.2001H50.3407C51.6424 43.2017 52.6974 44.2565 52.6992 45.5583V52.2001Z" fill="white"/>
</g>
</g>
</g>
<defs>
<clipPath id="clip0_2645_478">
<rect width="54" height="54" fill="white" transform="translate(0.5)"/>
</clipPath>
<clipPath id="clip1_2645_478">
<rect width="54" height="23.4" fill="white" transform="translate(0.5)"/>
</clipPath>
<clipPath id="clip2_2645_478">
<rect width="54" height="23.4" fill="white" transform="translate(0.5)"/>
</clipPath>
<clipPath id="clip3_2645_478">
<rect width="18" height="1.8" fill="white" transform="translate(30.1992 4.5)"/>
</clipPath>
<clipPath id="clip4_2645_478">
<rect width="18" height="1.8" fill="white" transform="translate(30.1992 4.5)"/>
</clipPath>
<clipPath id="clip5_2645_478">
<rect width="18" height="1.8" fill="white" transform="translate(32.9004 9.8999)"/>
</clipPath>
<clipPath id="clip6_2645_478">
<rect width="18" height="1.8" fill="white" transform="translate(32.9004 9.8999)"/>
</clipPath>
<clipPath id="clip7_2645_478">
<rect width="18" height="1.8" fill="white" transform="translate(29.3008 15.2998)"/>
</clipPath>
<clipPath id="clip8_2645_478">
<rect width="18" height="1.8" fill="white" transform="translate(29.3008 15.2998)"/>
</clipPath>
<clipPath id="clip9_2645_478">
<rect width="28.9517" height="50.4" fill="white" transform="translate(0.5 3.6001)"/>
</clipPath>
<clipPath id="clip10_2645_478">
<rect width="28.9517" height="50.4" fill="white" transform="translate(0.5 3.6001)"/>
</clipPath>
<clipPath id="clip11_2645_478">
<rect width="10.8" height="19.8429" fill="white" transform="translate(29.3008 34.1572)"/>
</clipPath>
<clipPath id="clip12_2645_478">
<rect width="10.8" height="19.8429" fill="white" transform="translate(29.3008 34.1572)"/>
</clipPath>
<clipPath id="clip13_2645_478">
<rect width="10.8" height="19.8429" fill="white" transform="translate(43.6992 34.1572)"/>
</clipPath>
<clipPath id="clip14_2645_478">
<rect width="10.8" height="19.8429" fill="white" transform="translate(43.6992 34.1572)"/>
</clipPath>
</defs>
</svg>
