<svg width="55" height="54" viewBox="0 0 55 54" fill="none" xmlns="http://www.w3.org/2000/svg">
<g clip-path="url(#clip0_2645_455)">
<g clip-path="url(#clip1_2645_455)">
<path d="M50.128 28.3081C49.9654 27.4607 49.2242 26.8479 48.3613 26.8474H46.6234L46.4956 26.0815C46.3681 25.3123 45.762 24.7113 44.9917 24.5902C44.8207 24.5632 44.6479 24.5452 44.4778 24.5218C44.7725 23.1459 44.5277 21.7093 43.7938 20.5087C44.1816 19.503 44.1092 18.3778 43.5958 17.43C43.0824 16.4822 42.1796 15.8069 41.1253 15.5821C40.4513 11.9749 37.3132 9.35283 33.6436 9.33073C33.5536 9.33073 33.4735 9.34243 33.388 9.34513C32.8017 8.42429 31.835 7.81315 30.7516 7.67841C29.6683 7.54367 28.5814 7.89939 27.7873 8.64853C26.787 7.9983 25.6198 7.65164 24.4267 7.65043C22.5044 7.6583 20.6926 8.55056 19.5145 10.0696C18.2064 9.68818 16.7958 9.92239 15.6811 10.7061C14.5665 11.4898 13.8688 12.738 13.7851 14.098C12.4111 14.6756 11.5171 16.0204 11.5162 17.5108C11.519 17.7692 11.5492 18.0265 11.6062 18.2785C10.3911 20.1103 10.0736 22.3948 10.7431 24.4885C10.5019 24.5218 10.2553 24.5515 10.0231 24.5857C9.2488 24.7026 8.63731 25.3039 8.50752 26.0761L8.37972 26.8447H6.63732C5.77588 26.8453 5.03562 27.4562 4.87152 28.3018L0.930415 48.5356C0.776502 49.3281 0.985217 50.1478 1.49935 50.7701C2.01348 51.3924 2.77909 51.7521 3.58632 51.7504H22.3549C23.1001 52.9798 25.3645 53.5504 27.4993 53.5504C29.6116 53.5504 31.8544 52.9933 32.6212 51.7504H51.4123C52.2194 51.752 52.9848 51.3925 53.4989 50.7704C54.013 50.1483 54.2218 49.3288 54.0682 48.5365L50.128 28.3081ZM14.2378 19.1398C13.5071 18.7005 13.1583 17.8282 13.3847 17.0062C13.6111 16.1841 14.3572 15.6134 15.2098 15.61C15.8066 15.6083 16.3682 15.8919 16.7209 16.3732C16.9126 16.6314 17.2274 16.7678 17.5468 16.7309C17.8662 16.694 18.1417 16.4896 18.2695 16.1945C18.3973 15.8994 18.358 15.5586 18.1663 15.3004C17.5552 14.4836 16.6291 13.9611 15.6139 13.8604C15.8822 12.6 16.9937 11.6977 18.2824 11.6941C18.3922 11.6997 18.5016 11.7117 18.61 11.7301C18.5376 11.9146 18.4745 12.1027 18.421 12.2935C18.309 12.7699 18.5982 13.2485 19.0721 13.3709C19.5459 13.4933 20.0307 13.2146 20.1634 12.7435C20.2658 12.348 20.423 11.9687 20.6305 11.6167C21.4289 10.2793 22.8691 9.45739 24.4267 9.45043C25.2744 9.45419 26.1027 9.70434 26.8108 10.1704C26.6759 10.5494 26.6045 10.9481 26.5993 11.3503C26.5993 11.8474 27.0023 12.2503 27.4993 12.2503C27.9964 12.2503 28.3993 11.8474 28.3993 11.3503C28.3993 10.3048 29.2469 9.45718 30.2925 9.45718C31.338 9.45718 32.1856 10.3048 32.1856 11.3503C32.1856 11.8474 32.5886 12.2503 33.0856 12.2503C33.5827 12.2503 33.9856 11.8474 33.9856 11.3503C33.9856 11.281 33.9685 11.2153 33.9649 11.146C36.5419 11.305 38.7089 13.1369 39.2947 15.6514C38.8749 15.7737 38.4804 15.9703 38.1301 16.2319C37.8729 16.4249 37.7381 16.7404 37.7766 17.0596C37.815 17.3788 38.0209 17.6533 38.3166 17.7796C38.6123 17.9059 38.9529 17.8649 39.2101 17.6719C39.9293 17.1395 40.9228 17.1819 41.5939 17.7738C42.2651 18.3657 42.4314 19.3461 41.9929 20.1262C41.797 20.4707 41.4993 20.7461 41.1406 20.9146C40.7645 21.0967 40.5632 21.5138 40.6546 21.9216C40.7461 22.3293 41.1061 22.6205 41.524 22.6246C41.656 22.6248 41.7863 22.5956 41.9056 22.5391C42.1441 22.4235 42.3695 22.2826 42.5779 22.1188C43.0431 23.4414 42.7514 24.9124 41.8165 25.9573L41.7949 25.9798C40.6224 27.25 38.752 27.5933 37.2049 26.8222C37.0534 26.7422 36.9078 26.6514 36.7693 26.5504C37.4322 25.6211 37.5238 24.4003 37.0069 23.3824C36.8622 23.0951 36.5753 22.9069 36.2541 22.8885C35.9329 22.8702 35.6264 23.0246 35.45 23.2935C35.2735 23.5625 35.2539 23.9051 35.3986 24.1924C35.6946 24.7873 35.51 25.5092 34.9648 25.8889C34.6447 26.1021 34.2492 26.1695 33.8765 26.0744C33.5038 25.9794 33.189 25.7308 33.01 25.3903C32.8661 25.1027 32.5797 24.9137 32.2587 24.8945C31.9377 24.8753 31.6308 25.0288 31.4536 25.2973C31.2765 25.5657 31.256 25.9082 31.3999 26.1958C31.9277 27.2613 33.0153 27.9342 34.2043 27.931C34.5914 27.9284 34.9746 27.853 35.3338 27.7087C35.6553 27.9902 36.0094 28.2319 36.3886 28.4287C37.6713 29.0936 39.1629 29.2315 40.5457 28.813C39.6563 30.0274 38.3252 30.8436 36.8395 31.0855C36.3773 31.1608 36.05 31.5779 36.0869 32.0447C36.1238 32.5116 36.5125 32.8721 36.9808 32.8738C37.0287 32.8738 37.0766 32.8702 37.1239 32.863C37.672 32.7682 38.2075 32.6118 38.7205 32.3968C38.9978 32.887 39.2228 33.405 39.3919 33.9421C39.4229 34.0359 39.4387 34.1341 39.4387 34.2328C39.4385 34.6218 39.2062 34.9731 38.8483 35.1256C38.4343 35.2858 37.9643 35.1594 37.6864 34.8133C36.9894 33.9948 36.0767 33.3883 35.0521 33.0628C33.1072 32.4112 32.3566 31.8289 32.038 31.1953C32.505 31.1371 32.9664 31.0407 33.4177 30.9073C33.7251 30.8128 33.9587 30.5615 34.0305 30.248C34.1024 29.9345 34.0015 29.6065 33.7659 29.3876C33.5304 29.1686 33.1959 29.092 32.8885 29.1865C32.3835 29.3415 31.8622 29.4372 31.3351 29.4718C30.3196 29.5512 29.2994 29.3973 28.3525 29.0218C27.997 28.8832 27.5927 28.9838 27.3436 29.2729C26.0332 30.7781 23.7905 31.034 22.1748 29.8626C20.5591 28.6911 20.105 26.48 21.1282 24.7666C21.294 24.4899 21.2995 24.1459 21.1428 23.864C20.986 23.5821 20.6908 23.4052 20.3683 23.4C20.0458 23.3948 19.7451 23.562 19.5793 23.8387C19.3646 24.2042 19.1919 24.5928 19.0645 24.997C18.3558 24.9597 17.7969 24.3801 17.7856 23.6704V23.6479C17.7852 23.4105 17.6898 23.183 17.5208 23.0162C17.3518 22.8494 17.1231 22.757 16.8856 22.7596C16.3864 22.7646 15.9846 23.1712 15.9856 23.6704C15.9896 25.2666 17.1933 26.6043 18.7801 26.7763C18.7833 27.078 18.8107 27.379 18.862 27.6763C16.8525 28.1112 14.7683 27.3888 13.4588 25.8038C12.1493 24.2187 11.8332 22.0356 12.6394 20.1442C12.8408 20.3479 13.0655 20.5271 13.309 20.6779C13.7342 20.927 14.2806 20.7879 14.5348 20.3658C14.7891 19.9437 14.6567 19.3957 14.2378 19.1362V19.1398ZM10.2778 26.3695C10.6927 26.3083 11.1211 26.2543 11.5468 26.1985C13.2108 28.8577 16.3934 30.1489 19.4398 29.4007C20.2584 30.9543 21.7541 32.0377 23.4854 32.3311C25.2167 32.6246 26.9859 32.0945 28.2706 30.8974C28.8822 31.0799 29.5122 31.194 30.1489 31.2376C30.5836 32.8864 31.84 33.8854 34.4797 34.7701C35.1913 34.9932 35.8261 35.4113 36.3121 35.977C36.8524 36.6195 37.6471 36.9928 38.4865 36.9985C38.8536 36.9984 39.217 36.9243 39.5548 36.7807C40.575 36.3447 41.2368 35.3423 41.2369 34.2328C41.2377 33.9435 41.1915 33.6559 41.1001 33.3814C40.8977 32.7455 40.6311 32.1319 40.3045 31.5499C41.8349 30.4498 42.9011 28.8193 43.2952 26.9761C43.4869 26.7484 43.6602 26.5058 43.8136 26.2507C44.1151 26.2894 44.4166 26.3236 44.7199 26.374L47.9689 45.9166C41.6181 43.796 34.7502 43.796 28.3993 45.9166V34.6504C28.3993 34.1534 27.9964 33.7504 27.4993 33.7504C27.0023 33.7504 26.5993 34.1534 26.5993 34.6504V45.9202C20.2492 43.7976 13.3814 43.7951 7.02972 45.913L10.2778 26.3695ZM2.88522 49.6192C2.71516 49.4138 2.64583 49.1431 2.69622 48.8812L6.63732 28.6474H8.07732L5.25312 45.6205C5.15378 46.2383 5.38126 46.8635 5.85437 47.273C6.32749 47.6825 6.97885 47.818 7.57602 47.6311C12.3739 46.0767 17.4854 45.7524 22.4413 46.6879L22.1731 49.9504H3.58632C3.3148 49.9506 3.05751 49.8291 2.88522 49.6192ZM27.4993 51.7504C25.3312 51.7504 24.0874 51.1096 23.9047 50.8243L24.2143 47.0893C25.2039 47.3357 26.1724 47.6605 27.1105 48.0604C27.2318 48.1189 27.3646 48.1496 27.4993 48.1504C27.6343 48.1502 27.7676 48.1195 27.889 48.0604C28.8266 47.6581 29.7947 47.3313 30.7843 47.083L31.0939 50.8234C30.9112 51.1096 29.6674 51.7504 27.4993 51.7504ZM52.1134 49.6192C51.9411 49.8291 51.6838 49.9506 51.4123 49.9504H32.8282L32.5582 46.6816C37.5168 45.748 42.6306 46.0751 47.4298 47.6329C48.0268 47.8174 48.6768 47.68 49.1481 47.2697C49.6194 46.8594 49.845 46.2346 49.7446 45.6178L46.9231 28.6483H48.3631L52.3051 48.8803C52.355 49.1429 52.2847 49.414 52.1134 49.6192Z" fill="black"/>
<path d="M24.5169 20.8666C24.1485 21.1999 24.1199 21.7688 24.453 22.1374C25.2164 22.9803 26.2255 23.5621 27.3375 23.8006C26.8339 24.5103 26.0171 24.9314 25.1469 24.9301C24.6498 24.9301 24.2469 25.333 24.2469 25.8301C24.2469 26.3272 24.6498 26.7301 25.1469 26.7301C27.01 26.7375 28.6817 25.5868 29.34 23.8438C31.5779 23.4729 33.3496 21.7504 33.7833 19.5238C33.8503 19.2053 33.7401 18.8755 33.4952 18.6612C33.2503 18.4469 32.9087 18.3815 32.602 18.4902C32.2952 18.5989 32.071 18.8647 32.0157 19.1854C31.8392 20.1137 31.3036 20.9348 30.5253 21.4705C29.0279 22.479 27.0197 22.2501 25.7877 20.9305C25.4543 20.5621 24.8855 20.5335 24.5169 20.8666Z" fill="black"/>
<path d="M21.3785 19.8901C21.8756 19.8901 22.2785 19.4872 22.2785 18.9901C22.2785 18.3695 22.5251 17.7743 22.9639 17.3355C23.4027 16.8966 23.9979 16.6501 24.6185 16.6501C25.1156 16.6501 25.5185 16.2472 25.5185 15.7501C25.5185 15.253 25.1156 14.8501 24.6185 14.8501C22.3331 14.8526 20.481 16.7047 20.4785 18.9901C20.4785 19.2288 20.5733 19.4577 20.7421 19.6265C20.9109 19.7953 21.1398 19.8901 21.3785 19.8901Z" fill="black"/>
<path d="M28.3996 2.2502V1.3502C28.3996 0.853139 27.9967 0.450195 27.4996 0.450195C27.0026 0.450195 26.5996 0.853139 26.5996 1.3502V2.2502C26.5996 2.74725 27.0026 3.1502 27.4996 3.1502C27.9967 3.1502 28.3996 2.74725 28.3996 2.2502Z" fill="black"/>
<path d="M42.2685 6.90857L41.3685 7.80857C41.1346 8.03454 41.0407 8.36916 41.1231 8.68383C41.2055 8.99849 41.4512 9.24423 41.7659 9.3266C42.0805 9.40896 42.4152 9.31513 42.6411 9.08117L43.5411 8.18117C43.7751 7.9552 43.8689 7.62058 43.7866 7.30591C43.7042 6.99125 43.4585 6.74551 43.1438 6.66314C42.8291 6.58078 42.4945 6.67461 42.2685 6.90857Z" fill="black"/>
<path d="M12.9947 9.34487C13.3586 9.34479 13.6867 9.12552 13.826 8.78926C13.9653 8.453 13.8883 8.06597 13.631 7.80857L12.731 6.90857C12.505 6.67461 12.1704 6.58078 11.8557 6.66314C11.5411 6.74551 11.2953 6.99125 11.2129 7.30591C11.1306 7.62058 11.2244 7.9552 11.4584 8.18117L12.3584 9.08117C12.5271 9.24997 12.756 9.34482 12.9947 9.34487Z" fill="black"/>
<path d="M19.9215 5.55774C20.0398 5.55749 20.1568 5.53426 20.2662 5.48934C20.4868 5.39797 20.662 5.22268 20.7534 5.00206C20.8447 4.78145 20.8446 4.53359 20.7531 4.31304L19.719 1.81824C19.6006 1.51438 19.327 1.29838 19.0039 1.25364C18.6809 1.20891 18.3589 1.34244 18.1623 1.60268C17.9658 1.86291 17.9253 2.20913 18.0567 2.50764L19.0899 5.00244C19.2293 5.33867 19.5575 5.55783 19.9215 5.55774Z" fill="black"/>
<path d="M36.4543 1.33129C35.9953 1.14139 35.4692 1.35931 35.2789 1.81819L34.2448 4.31299C34.153 4.53364 34.1528 4.78172 34.2441 5.00255C34.3355 5.22338 34.5109 5.39882 34.7317 5.49019C34.8411 5.5351 34.9581 5.55833 35.0764 5.55859C35.4404 5.55868 35.7686 5.33952 35.908 5.00329L36.9412 2.50849C37.0329 2.28783 37.0332 2.03975 36.9418 1.81892C36.8505 1.59809 36.6751 1.42265 36.4543 1.33129Z" fill="black"/>
<path d="M45.7915 16.2741C45.9098 16.2739 46.027 16.2503 46.1362 16.2048L48.6301 15.1716C48.9272 15.0486 49.1361 14.7764 49.1782 14.4577C49.2202 14.1389 49.089 13.8219 48.8339 13.6261C48.5789 13.4303 48.2387 13.3854 47.9416 13.5084L45.4468 14.5416C45.0487 14.7051 44.8221 15.1276 44.9061 15.5497C44.99 15.9718 45.3611 16.2754 45.7915 16.2741Z" fill="black"/>
<path d="M8.86242 16.2045C9.3217 16.3949 9.84835 16.1769 10.0387 15.7176C10.2291 15.2583 10.0111 14.7317 9.55182 14.5413L7.05702 13.5081C6.59774 13.318 6.0713 13.5362 5.88117 13.9955C5.69105 14.4548 5.90924 14.9812 6.36852 15.1713L8.86242 16.2045Z" fill="black"/>
</g>
</g>
<defs>
<clipPath id="clip0_2645_455">
<rect width="53.2367" height="53.1" fill="white" transform="translate(0.880859 0.450195)"/>
</clipPath>
<clipPath id="clip1_2645_455">
<rect width="53.2367" height="53.1" fill="white" transform="translate(0.880859 0.450195)"/>
</clipPath>
</defs>
</svg>
